<svg version="1.1" id="Layer_1" xmlns="http://www.w3.org/2000/svg" xmlns:xlink="http://www.w3.org/1999/xlink" x="0px" y="0px"
	 width="100%" viewBox="0 0 784 1024" enable-background="new 0 0 784 1024" xml:space="preserve">
<path fill="#000000" opacity="1.000000" stroke="none" 
	d="
M407.394165,477.572998 
	C410.601257,488.091522 415.698303,497.127899 422.177643,505.460205 
	C425.147827,504.235138 425.953613,501.704102 427.263885,499.677307 
	C451.728821,461.835297 467.427551,420.424225 476.438019,376.471344 
	C485.727905,331.155487 501.904053,288.231171 520.591614,246.160370 
	C526.408813,233.064346 534.353149,221.056091 541.852905,208.837250 
	C558.236633,182.144653 573.989990,155.075546 589.385803,127.799347 
	C599.454041,109.961777 604.785034,90.241974 612.010864,71.272179 
	C614.734314,64.122589 617.292053,56.870129 621.737061,50.506645 
	C630.697449,37.679050 641.269836,36.440964 652.759644,47.201317 
	C663.759277,57.502579 669.002258,70.684044 670.233887,85.406708 
	C671.893250,105.242546 669.522278,124.990601 668.024963,144.733841 
	C665.300842,180.653748 659.277832,216.138596 652.133606,251.366318 
	C641.839844,302.124695 624.227417,350.333740 598.103149,395.227539 
	C582.320679,422.349213 561.614258,445.610840 540.444214,468.534454 
	C524.863831,485.405426 507.560059,500.743103 494.483521,519.870300 
	C490.902893,525.107788 487.472565,530.396790 484.853638,536.198059 
	C483.880066,538.354614 483.774689,540.084961 485.240326,542.192993 
	C499.600983,562.848206 510.438232,585.306763 518.672485,609.014038 
	C525.652222,629.109497 534.449219,648.265686 546.699890,665.721619 
	C552.012146,673.291016 558.470337,679.705933 566.291382,684.771118 
	C569.169373,686.635010 571.964172,687.128357 575.266235,686.590149 
	C610.136230,680.906128 645.125610,679.416199 680.266479,683.807434 
	C682.059387,684.031433 683.950623,684.013123 686.207947,687.189514 
	C650.138428,685.062866 615.206238,685.559021 580.516235,690.677795 
	C580.475952,691.092896 580.435669,691.507996 580.395386,691.923035 
	C585.680115,692.864502 590.987366,693.695496 596.245483,694.767395 
	C614.769104,698.543579 633.382080,702.848206 648.842957,714.094543 
	C656.925659,719.973999 665.089966,722.067017 674.468628,722.923096 
	C689.244202,724.271973 703.762512,727.373291 718.205200,730.741821 
	C719.724243,731.096130 721.579407,731.144714 722.309265,734.097351 
	C703.283020,730.725159 684.635376,727.441895 664.470764,726.900085 
	C667.284424,730.410828 669.333252,732.950378 671.362793,735.505310 
	C672.870117,737.402832 674.287048,739.492493 672.429932,741.784241 
	C670.502808,744.162170 668.240051,742.901855 666.119385,741.793640 
	C665.541809,741.491821 664.919067,741.276672 663.358215,740.615662 
	C667.989197,751.029907 671.194397,761.072571 674.072144,771.223877 
	C674.761047,773.653931 677.064514,774.175842 679.002197,775.069214 
	C692.943787,781.497131 706.419556,788.781555 719.271179,797.182556 
	C722.274048,799.145447 725.474243,801.013855 727.026733,804.872009 
	C710.909058,795.307617 694.661255,786.102661 677.067200,779.412842 
	C675.534729,782.927673 676.928772,785.655334 677.146362,788.407104 
	C677.796936,796.636108 676.485779,804.687866 675.116089,812.737793 
	C674.759644,814.832703 673.832092,816.697388 671.489807,816.948181 
	C669.082642,817.205933 667.971313,815.437622 667.216919,813.463928 
	C665.937256,810.116089 665.116394,806.567139 662.679016,802.940430 
	C661.487671,809.068970 660.501770,814.575928 659.332275,820.043579 
	C657.961670,826.451538 655.197388,832.341248 652.205566,838.121338 
	C651.255493,839.957031 650.011902,841.687744 647.588867,841.119629 
	C645.200439,840.559631 644.866394,838.527100 644.702454,836.426086 
	C644.470886,833.458252 644.122375,830.499573 643.836670,827.663574 
	C642.332642,827.258972 641.991760,828.194092 641.662537,828.867920 
	C632.429077,847.762207 617.127991,861.436401 601.957642,875.260437 
	C568.781311,905.492371 530.095947,926.804443 489.536591,945.163269 
	C478.602966,950.112244 468.533569,956.734436 457.983917,962.402161 
	C443.614594,970.122009 430.585632,980.405823 413.916626,983.853333 
	C386.172241,989.591553 361.471130,984.008606 337.986877,968.248413 
	C326.228210,960.357117 313.588623,953.437378 300.654572,947.325806 
	C277.152161,936.220276 253.510849,925.332520 231.551102,911.313354 
	C203.615433,893.479126 178.102890,872.690857 156.232834,847.646484 
	C150.870621,841.505981 147.614822,833.942261 142.840149,826.704224 
	C140.657974,830.091187 141.434341,833.321289 141.148285,836.342163 
	C140.952728,838.407288 140.705490,840.532776 138.376358,841.163452 
	C135.717834,841.883362 134.468811,839.931519 133.445969,837.925354 
	C129.022263,829.249329 125.983597,820.128967 124.634666,810.461609 
	C124.343132,808.372314 123.910553,806.302734 123.402626,803.430542 
	C120.394241,806.490173 120.050896,809.876587 118.760025,812.776428 
	C117.870354,814.774963 117.043625,817.077087 114.359566,816.826050 
	C111.726936,816.579712 111.107887,814.286255 110.681061,812.090820 
	C108.891670,802.886230 107.961220,793.639648 109.339310,784.279419 
	C109.551582,782.837585 110.120560,781.344360 108.561951,779.430847 
	C93.350609,784.869995 79.316284,793.213806 64.681091,801.586975 
	C64.216995,797.818420 66.511559,797.239136 67.978790,796.264038 
	C80.361618,788.034424 93.522049,781.201965 107.068558,775.139526 
	C110.131958,773.768677 111.773636,771.985413 112.568695,768.761658 
	C114.321960,761.652771 116.412918,754.632141 119.298561,747.869202 
	C119.919159,746.414734 120.985573,744.934021 120.323326,743.204163 
	C119.560104,742.416931 118.746269,742.734009 117.946968,742.926086 
	C115.804947,743.440674 113.871094,743.147400 112.785530,741.037781 
	C111.708534,738.944641 112.750191,737.152344 114.077530,735.561401 
	C115.969337,733.294006 118.307716,731.355286 119.951279,727.368164 
	C100.944206,727.071411 83.093674,730.927307 65.038315,733.145325 
	C66.541519,730.485901 69.100365,730.303650 71.383331,729.812500 
	C88.482452,726.134094 105.664062,722.946777 123.149963,721.742249 
	C125.206169,721.600586 127.091919,721.063782 128.687637,719.732910 
	C146.619156,704.777771 168.320709,699.105286 190.508667,694.663208 
	C195.366699,693.690552 200.272736,692.957642 205.146713,691.426880 
	C170.721817,685.432129 136.007706,685.303223 100.741035,687.062500 
	C101.883316,683.906311 103.533318,684.032654 104.952065,683.847778 
	C134.701294,679.971191 164.433273,680.577209 194.144608,684.282043 
	C199.927444,685.003174 205.698456,685.832031 211.458313,686.718933 
	C214.419006,687.174866 216.919281,686.530945 219.472076,684.885559 
	C229.065308,678.702454 236.259705,670.325073 242.461929,660.892029 
	C254.560532,642.490967 262.357452,622.171570 269.851318,601.620483 
	C277.462891,580.746643 287.423798,560.945435 300.133484,542.645691 
	C301.977814,539.990173 301.730316,537.881592 300.477722,535.288940 
	C293.426086,520.693237 283.188660,508.391052 272.197571,496.748718 
	C252.754242,476.153351 232.787018,456.046356 214.868469,434.060364 
	C191.283310,405.121521 173.269608,372.902313 159.993164,338.151581 
	C149.597794,310.941925 139.450470,283.544098 134.222809,254.724442 
	C130.003174,231.461884 125.965096,208.156555 122.433151,184.781540 
	C117.826950,154.296997 114.850113,123.618828 115.039177,92.754921 
	C115.144432,75.571503 120.014397,59.880779 132.797577,47.489017 
	C143.872574,36.753139 154.546616,37.568958 163.552124,49.986622 
	C169.808670,58.613728 173.376160,68.622803 176.317703,78.632126 
	C185.488693,109.838676 201.390869,137.682785 217.871124,165.357605 
	C229.464005,184.825180 240.888336,204.389862 252.868057,223.625778 
	C268.757172,249.139008 278.184723,277.481720 288.964783,305.286865 
	C299.560120,332.615631 305.453613,361.105377 312.269928,389.420135 
	C321.254608,426.742615 335.031586,462.173920 355.485687,494.828735 
	C355.892517,495.478271 356.125031,496.389038 357.492004,496.407227 
	C357.861694,488.799988 358.940491,481.291992 361.634369,474.099609 
	C362.931610,470.636169 364.612885,467.401001 367.006592,464.570801 
	C368.119415,463.255066 369.428497,462.168518 371.322205,462.747528 
	C372.977997,463.253815 373.536255,464.726807 373.825165,466.215240 
	C374.519043,469.790100 375.098175,473.387238 376.084045,477.019379 
	C377.013245,470.693542 378.109924,464.459381 380.836334,458.668854 
	C381.799042,456.624146 382.334869,453.798096 385.458527,454.374634 
	C388.202759,454.881104 388.033752,457.439728 388.303314,459.589569 
	C389.426636,468.548462 391.407654,477.263733 396.138275,486.296753 
	C396.794922,480.522858 397.146118,475.655457 398.507996,470.961487 
	C399.051056,469.089874 399.519745,467.266937 401.764923,467.139435 
	C404.236633,466.999054 405.199219,468.874817 405.775757,470.883423 
	C406.371552,472.958801 406.810364,475.079224 407.394165,477.572998 
M331.659515,721.847229 
	C314.009796,712.831238 295.621277,706.101501 275.712250,703.789062 
	C303.411835,715.070007 326.530334,732.904785 348.216705,752.867065 
	C344.127045,752.968506 341.512482,750.358337 338.736908,748.221680 
	C323.684937,736.634949 308.870087,724.725830 291.715546,716.216309 
	C278.244476,709.534058 264.528046,702.422913 249.724854,700.608398 
	C215.936340,696.466675 182.923691,700.975647 151.462784,714.631104 
	C149.363525,715.542297 146.627075,716.087830 146.016357,718.937988 
	C147.617523,720.765137 149.451584,720.476379 151.294312,720.386414 
	C154.453156,720.232117 157.626221,720.009949 160.778946,720.147095 
	C182.899689,721.108765 205.024048,721.860901 227.022400,724.796204 
	C257.641357,728.881714 287.776520,735.016357 317.121246,744.771240 
	C318.708008,745.298706 320.765717,745.437256 321.233704,747.682312 
	C319.463562,749.172119 317.914215,748.126099 316.400146,747.696960 
	C311.112640,746.198120 305.863922,744.558838 300.560211,743.121338 
	C273.162903,735.695007 245.256958,731.071411 217.033127,728.364197 
	C196.300980,726.375671 175.514282,725.179016 154.672760,725.291626 
	C152.723984,725.302185 150.339737,724.588135 148.967697,726.313477 
	C146.158524,729.846130 141.994644,730.735229 138.225204,732.356934 
	C135.650208,733.464722 133.807709,735.046936 132.361588,737.464600 
	C127.970680,744.805481 124.683800,752.604126 122.173203,760.751526 
	C121.546562,762.785095 120.243500,765.115723 121.977249,766.890625 
	C123.879715,768.838074 126.073914,766.949768 127.978325,766.226624 
	C167.397659,751.257507 207.873642,743.008057 250.266678,746.841614 
	C252.704071,747.062012 255.521210,746.379272 257.583221,749.305969 
	C253.992325,751.252136 250.628738,750.372742 247.475372,750.188843 
	C204.179031,747.663330 163.046295,756.837769 123.172981,772.939209 
	C121.496597,773.616150 119.262856,773.892700 118.633034,775.745178 
	C116.616920,781.675049 115.492203,787.749756 116.764442,795.266846 
	C123.153046,787.365967 124.666100,777.115479 134.484482,773.272949 
	C133.870728,781.242249 128.280487,787.936218 129.943008,796.498108 
	C131.445587,804.236328 131.131332,812.326599 134.634674,819.704407 
	C135.440567,818.900330 135.692886,818.151184 135.903763,817.390564 
	C137.200958,812.711792 137.859024,807.964172 137.781357,803.087830 
	C137.748581,801.030396 138.388107,798.916443 140.905228,798.661743 
	C143.436386,798.405701 144.240265,800.439270 144.890411,802.387329 
	C145.151657,803.170105 145.221527,804.015869 145.390091,804.830566 
	C148.503616,819.879456 155.373291,833.301331 165.492859,844.527039 
	C188.398193,869.935791 215.094513,890.895020 244.359283,908.583862 
	C264.937531,921.022278 286.993256,930.557373 308.505249,941.159119 
	C309.898712,941.845825 311.327148,943.088623 313.148682,942.046814 
	C314.101807,939.935791 312.434479,938.590027 311.669739,937.051575 
	C309.817474,933.325378 307.715790,929.720215 305.943176,925.958618 
	C305.147858,924.270996 303.631317,921.962708 305.966766,920.600098 
	C308.428406,919.163879 309.265717,921.855835 310.449280,923.325928 
	C310.553040,923.454895 310.636261,923.602295 310.716736,923.747925 
	C316.648804,934.479736 324.331879,943.899170 332.795074,952.675903 
	C355.684418,976.413208 383.321320,983.500916 415.046967,975.671204 
	C433.677765,971.073181 447.626099,959.603333 459.696228,945.247070 
	C465.730804,938.069580 471.084106,930.482971 475.814758,922.415649 
	C476.653961,920.984558 477.736481,919.328003 479.737396,920.376099 
	C481.624756,921.364807 481.288818,923.186340 480.507477,924.760864 
	C478.361877,929.084534 476.078918,933.339966 473.933685,937.663757 
	C473.184387,939.173950 471.441559,940.474487 472.474274,942.486694 
	C474.040894,942.976379 475.212982,942.257446 476.386780,941.648438 
	C494.575134,932.211731 513.503540,924.284729 531.427612,914.288757 
	C564.150269,896.040039 593.486267,873.407288 618.967468,846.020996 
	C629.370483,834.840027 636.555908,821.412842 639.968750,806.214905 
	C640.660034,803.136292 640.062256,797.882324 645.004700,798.503845 
	C649.267944,799.039917 648.073120,803.733276 648.190430,806.903564 
	C648.357849,811.431946 649.110352,815.758423 651.152283,819.849121 
	C654.655762,812.234863 654.343079,804.113159 655.906982,796.362427 
	C657.613342,787.905334 651.604980,781.223877 651.593262,773.174316 
	C661.507385,777.638306 662.935791,788.441589 669.359985,796.258911 
	C670.617126,788.756836 669.622375,782.189209 667.281982,776.264893 
	C665.652771,772.140930 659.857544,772.487732 656.158691,770.370667 
	C655.300354,769.879395 654.320374,769.594482 653.385071,769.244446 
	C614.507141,754.694946 574.501221,747.383911 532.874756,750.461060 
	C531.168091,750.587280 529.183899,751.269226 528.137695,747.780579 
	C575.994812,741.523071 620.963928,751.690857 665.828918,769.296936 
	C663.193176,757.929871 659.494202,748.731812 654.910156,739.822266 
	C652.815247,735.750427 650.037170,732.782959 645.539062,731.489258 
	C642.981323,730.753540 640.197266,729.993958 638.574341,727.799744 
	C636.795471,725.394470 634.561035,725.221558 631.994568,725.219421 
	C616.993774,725.207092 602.033081,726.025391 587.066284,726.983215 
	C547.187073,729.535400 507.990417,735.851746 469.727936,747.571167 
	C468.100128,748.069824 466.368774,749.214966 463.585297,746.582764 
	C521.854553,726.323364 581.325439,719.837402 641.963135,719.760681 
	C637.932312,715.886108 633.139648,714.069397 628.423401,712.177368 
	C609.381348,704.538208 589.513428,700.437561 569.086853,699.571838 
	C556.312988,699.030518 543.303772,697.908081 530.811951,701.558838 
	C512.999451,706.764465 496.118988,714.240906 480.242035,723.977600 
	C467.126831,732.020569 455.596222,742.189514 443.064209,751.002197 
	C441.511139,752.094360 440.043213,754.277893 436.981537,752.388184 
	C460.226318,732.064575 484.179626,713.670837 513.149231,702.821045 
	C484.788330,707.206482 458.718262,717.225281 434.882751,732.953552 
	C432.675934,734.409790 430.125977,735.651306 429.080719,738.282349 
	C424.430389,749.987549 414.414825,756.282959 404.932404,763.473633 
	C396.401367,769.942932 389.306854,770.191406 380.915497,763.512695 
	C373.371063,757.507996 364.325745,752.994141 359.898712,744.016113 
	C356.593781,737.313599 351.509460,733.037292 345.414398,729.486450 
	C341.097748,726.971680 336.688538,724.615784 331.659515,721.847229 
M157.142151,99.264725 
	C165.683807,110.390129 171.605408,123.184814 179.646820,134.799057 
	C182.065857,133.886154 185.115875,132.940506 186.320633,135.543533 
	C187.829803,138.804306 189.772812,142.349136 188.905731,146.185913 
	C188.240784,149.128204 188.473022,151.653427 189.897797,154.324020 
	C193.007721,160.153152 197.305908,165.823593 198.542801,172.069031 
	C200.564896,182.279114 204.450134,191.821121 207.035614,201.785965 
	C215.218643,233.324860 226.884155,263.609528 240.508240,293.133911 
	C253.973984,322.315125 268.642426,350.939331 281.374329,380.462280 
	C297.244873,417.263214 308.143494,455.320831 309.827484,495.645905 
	C309.888763,497.113831 309.642944,498.261719 308.466980,499.150543 
	C307.024536,500.240692 305.542114,499.917084 304.321014,498.927704 
	C302.514404,497.463928 300.922852,495.738251 299.165649,494.209259 
	C293.931244,489.654663 288.660675,485.141632 283.424194,480.629547 
	C278.255737,487.214539 281.482880,492.209167 285.314636,497.029419 
	C293.096100,506.818329 300.751129,516.699707 306.519653,527.854126 
	C308.474365,531.633789 310.510742,532.017273 313.835480,529.397095 
	C320.054749,524.495850 326.998596,520.990112 334.859039,519.420288 
	C345.038727,517.387268 356.140411,521.372131 361.473175,529.254761 
	C362.482483,530.746643 364.171417,532.259705 363.176117,534.435364 
	C361.601349,534.758179 360.722412,533.889343 359.823395,533.194763 
	C345.919006,522.451782 333.159973,522.294250 318.025421,534.616333 
	C299.511719,549.689697 289.788544,569.810181 287.742584,593.627563 
	C287.445618,597.084229 287.423401,600.798462 284.818146,603.502563 
	C275.004700,613.688354 267.700836,625.350220 262.220978,638.437927 
	C257.158508,650.528687 249.754822,661.577271 246.000565,674.317017 
	C244.925613,677.964722 244.940704,681.170776 248.180862,683.193420 
	C253.771317,686.683411 259.640045,690.398193 265.572662,692.492126 
	C275.501801,695.996826 286.304077,697.160645 296.814667,698.833374 
	C302.734772,699.775574 304.046997,697.995667 302.819763,692.244873 
	C302.333984,689.968445 301.663513,687.731873 301.101105,685.471252 
	C296.553253,667.190063 292.092865,648.896240 292.728455,629.833435 
	C292.890808,624.964172 292.221558,620.197998 290.872070,615.517273 
	C289.697876,611.444580 289.874939,607.269348 290.050873,603.103394 
	C290.115540,601.573303 290.403839,600.016235 291.686951,599.054626 
	C295.489349,596.205017 297.202637,591.977966 298.819885,587.845703 
	C303.133362,576.824524 310.400879,568.068848 319.190735,560.450928 
	C322.977936,557.168640 327.129822,554.356262 332.064575,552.986450 
	C333.378143,552.621948 334.742950,552.436157 335.803741,553.555237 
	C336.972565,554.788269 336.496429,556.042847 335.531921,557.112671 
	C334.343567,558.430786 334.234467,559.845703 335.184021,561.216858 
	C338.303955,565.722107 338.431091,572.151917 344.352234,574.924927 
	C346.135010,575.759888 345.824280,578.084961 345.656189,579.951843 
	C345.538635,581.257446 345.090179,582.789551 345.583710,583.851379 
	C348.389954,589.889404 349.191376,596.509521 350.754944,602.827759 
	C353.385529,613.457825 354.550446,624.447449 356.403351,635.273560 
	C360.737366,660.596436 361.415955,685.978516 356.774109,711.290222 
	C355.705444,717.117676 357.679291,721.282471 360.621033,725.594421 
	C362.348511,728.126465 364.354004,728.825562 367.395111,727.419312 
	C385.366089,719.109131 403.206482,719.691467 420.764099,728.736450 
	C423.882507,730.342957 426.322266,729.799011 428.976440,727.653992 
	C431.741852,725.419189 432.125488,723.052551 431.212616,719.748840 
	C427.782257,707.334106 425.845276,694.621094 425.926361,681.763794 
	C426.188385,640.214294 432.731903,599.894531 450.480408,561.896423 
	C451.092072,560.586975 452.064606,559.228027 450.960327,557.691772 
	C450.026245,556.392212 448.280945,555.101013 450.079346,553.446594 
	C451.674652,551.978943 453.532898,552.980774 455.248566,553.604248 
	C461.838074,555.998779 467.011353,560.387939 471.914429,565.228760 
	C474.498627,567.780151 477.250000,570.193054 480.124603,572.410889 
	C482.945282,574.587158 486.375000,574.167725 489.137970,572.690369 
	C491.572388,571.388794 490.602325,568.636475 489.930054,566.345459 
	C485.251221,550.400024 475.393127,538.531982 461.215759,530.183655 
	C449.902710,523.521973 438.790863,523.708801 428.036041,531.684998 
	C426.445648,532.864441 424.968689,534.760376 422.113373,534.174988 
	C422.430603,531.290222 423.781403,529.145264 425.657532,527.594727 
	C429.319611,524.568115 428.251770,522.301575 425.212921,519.634338 
	C420.432953,515.438965 416.483856,510.462555 413.009430,505.148468 
	C409.775177,500.201782 406.721893,495.136719 402.981934,489.152527 
	C401.049255,497.283875 404.973328,504.545776 402.211884,512.327515 
	C395.976196,506.505920 397.929077,498.014709 393.419464,492.154572 
	C389.009827,486.424286 386.750488,479.325867 383.700928,471.454681 
	C380.502380,482.467285 383.567200,492.527557 382.794800,502.363342 
	C382.299591,502.467163 381.804413,502.571014 381.309235,502.674835 
	C377.188812,494.366699 373.068359,486.058563 368.929138,477.712555 
	C365.847595,478.993378 365.782471,481.511017 365.313690,483.690033 
	C362.567352,496.455353 364.132721,508.832916 368.645935,520.980225 
	C369.605927,523.563965 372.453918,527.435547 368.802307,528.805542 
	C365.219788,530.149658 363.842957,525.510132 363.009552,522.719543 
	C360.581268,514.588745 356.301788,507.599426 351.254181,500.906555 
	C348.252258,496.926208 345.705139,492.597961 343.024017,488.381317 
	C322.070465,455.427795 309.950714,418.925690 301.990326,381.152435 
	C293.039429,338.679016 278.410400,298.237579 261.543335,258.495850 
	C251.547012,234.942795 236.590027,214.097198 223.672104,192.145508 
	C217.675278,181.954956 211.474197,171.882736 205.222824,161.845871 
	C204.290466,160.348923 203.424011,157.613647 200.835571,158.811569 
	C198.671127,159.813278 199.630875,161.903748 200.194107,163.675262 
	C200.806198,165.600510 200.223373,166.763870 197.660416,166.955521 
	C197.757294,163.840271 197.085602,160.349731 198.940125,158.550888 
	C202.289917,155.301651 200.437943,152.832092 198.832321,150.222763 
	C193.864624,142.149673 189.037567,134.053787 185.144516,125.345726 
	C177.718445,108.734985 172.207230,91.428040 165.766052,74.461388 
	C163.168427,67.618965 160.649506,60.672344 156.097488,54.804390 
	C151.300613,48.620792 146.995453,48.030163 140.726608,52.604679 
	C131.839462,59.089817 127.685394,68.499283 125.566833,78.811714 
	C122.372353,94.361450 124.151405,110.010689 125.608948,125.599396 
	C125.788040,127.514816 125.837067,130.554031 128.842743,130.422882 
	C131.488144,130.307465 134.091873,129.122925 135.311203,126.418236 
	C135.987457,124.918182 136.216843,123.220230 136.686676,121.622955 
	C139.112579,113.375786 142.542145,105.676704 148.774048,99.505318 
	C151.196030,97.106857 153.726395,96.104355 157.142151,99.264725 
M156.593048,214.974716 
	C159.495544,227.626282 162.243561,240.315674 165.331543,252.921799 
	C172.556595,282.416626 182.852051,310.886932 194.308060,338.968201 
	C202.176743,358.256165 210.571564,377.240570 221.736893,394.941101 
	C242.728165,428.218842 269.890320,456.084045 298.157013,483.013824 
	C299.298584,484.101410 300.346649,485.540558 302.214050,485.634277 
	C302.456848,478.312164 295.662903,441.789551 292.407471,431.262695 
	C280.154877,391.642242 262.107239,354.484802 243.982666,317.377930 
	C229.049454,286.804840 215.044449,255.793106 205.852036,223.022812 
	C195.009430,184.369583 179.365417,148.053223 157.890625,114.199219 
	C156.414841,111.872726 155.481293,109.064537 152.784286,107.641716 
	C150.002594,108.897301 149.116226,111.500305 147.895767,113.818901 
	C142.180405,124.676712 142.297775,136.375183 143.717117,147.999451 
	C146.442825,170.323059 151.924530,192.152756 156.593048,214.974716 
M596.746948,325.339386 
	C600.737671,314.568329 605.147583,303.931458 608.646118,293.002869 
	C623.387817,246.953293 633.387817,199.767899 641.472473,152.163574 
	C643.785950,138.541428 643.949585,124.916351 636.937500,112.244827 
	C635.923706,110.412743 635.250732,108.205521 632.545959,107.539879 
	C629.228210,110.833679 627.405823,115.165565 625.026306,119.104256 
	C608.528503,146.412827 594.112549,174.662140 585.436096,205.573471 
	C580.126099,224.491135 573.785217,243.065918 566.670471,261.401764 
	C553.880920,294.362396 537.313599,325.573486 522.668091,357.672272 
	C506.614990,392.856049 491.134613,428.236755 485.720551,467.001465 
	C484.862915,473.141968 483.161346,479.224487 483.351349,485.910126 
	C484.352356,485.446442 484.861176,485.343658 485.184509,485.042023 
	C510.798370,461.150940 535.282837,436.245422 555.544739,407.485107 
	C573.240173,382.367645 586.211609,354.904236 596.746948,325.339386 
M491.878448,508.417542 
	C498.824341,499.913788 504.835724,490.344574 512.977173,483.203979 
	C521.227539,475.967926 526.871704,467.603729 531.299133,457.990936 
	C532.010986,456.445374 533.613037,454.503693 531.443909,453.135651 
	C529.586121,451.963898 528.505554,454.026093 527.379822,455.128357 
	C519.049744,463.284607 510.813446,471.537537 502.424500,479.632416 
	C496.071899,485.762360 489.537659,491.704102 483.084534,497.729858 
	C481.582031,499.132812 480.004883,500.538422 477.809265,499.275391 
	C475.686218,498.054138 475.898254,496.112457 476.309235,493.997833 
	C476.686737,492.055634 476.589966,490.023773 476.738403,488.034149 
	C478.390717,465.888550 481.795135,444.082642 488.570984,422.843536 
	C499.751221,387.798645 515.638977,354.761414 531.613342,321.785095 
	C544.478516,295.227203 556.632446,268.413025 566.599976,240.607422 
	C571.610474,226.630234 574.844299,212.159134 579.240540,198.015442 
	C580.686035,193.365143 583.112366,188.524872 582.611023,183.595642 
	C582.163208,179.192413 582.707214,175.380753 584.679626,171.582352 
	C585.785583,169.452499 586.145264,167.161987 585.722290,164.786194 
	C585.501160,163.543839 584.856506,162.590546 583.501709,162.435593 
	C582.439331,162.314087 581.126526,162.688599 580.963501,163.621109 
	C579.945679,169.442123 575.040344,172.689896 572.191162,177.278809 
	C566.229126,186.881256 560.705750,196.784195 554.290344,206.072067 
	C524.029297,249.882477 506.638184,299.325104 491.467438,349.666199 
	C485.758606,368.609833 483.037323,388.360565 477.495636,407.413635 
	C467.231842,442.701935 453.154083,476.156525 431.355652,506.022186 
	C426.658600,512.457458 426.820862,513.395325 433.022186,518.348145 
	C434.936066,519.876770 436.904846,520.089661 439.106384,519.554321 
	C442.897186,518.632568 446.656189,518.725220 450.496033,519.425049 
	C458.739014,520.927307 465.952972,524.631165 472.466064,529.682373 
	C475.571838,532.091064 477.202637,531.636597 478.892242,528.205750 
	C482.290100,521.305969 486.809570,515.096863 491.878448,508.417542 
M478.374634,680.959900 
	C484.893066,658.152893 487.594879,635.075562 484.907806,611.314697 
	C482.908081,593.632019 475.950745,578.727966 463.345367,566.352844 
	C461.753357,564.789978 460.343781,562.721741 457.666840,562.766785 
	C455.417267,564.819580 454.654388,567.609619 453.613373,570.209045 
	C443.751984,594.833435 439.164642,620.773499 435.407745,646.803955 
	C432.158752,669.315552 431.916046,691.957092 437.496124,714.297302 
	C439.112213,720.767334 440.836334,721.169189 446.128815,716.260803 
	C435.585388,703.992554 435.782745,689.588196 437.157440,673.785583 
	C442.069336,676.180786 446.001770,676.717896 448.085236,672.213562 
	C450.547028,666.891418 446.481293,664.451355 442.663483,662.318115 
	C446.551727,654.297363 456.816742,654.051147 462.850525,661.726196 
	C467.106781,667.140259 468.826447,673.536072 469.282532,680.334961 
	C469.901733,689.564697 468.745209,698.501709 464.150208,707.335938 
	C468.334076,707.207642 470.086945,705.501587 471.279114,702.606628 
	C474.076904,695.812622 476.350952,688.862793 478.374634,680.959900 
M340.488434,595.936096 
	C337.982391,585.550537 334.287109,575.563843 330.368958,565.648987 
	C329.211121,562.718933 327.681641,561.431641 324.912048,564.014893 
	C314.495483,573.730591 306.102661,584.721069 303.088318,599.031860 
	C295.504974,635.034180 301.913696,669.479187 314.764709,703.196777 
	C315.798004,705.907837 317.527374,707.582397 320.691223,707.324219 
	C321.129944,705.193787 319.805481,703.721863 319.225250,702.046570 
	C316.461884,694.068359 315.009979,685.968628 316.692230,677.522705 
	C317.128235,675.333557 317.630280,673.607300 320.526672,674.474487 
	C323.701385,675.424988 326.674591,674.970215 328.225616,671.718933 
	C329.804871,668.408508 328.576843,665.593506 325.846008,663.320801 
	C325.234009,662.811401 324.785706,662.105286 324.300354,661.534790 
	C327.689789,656.402161 332.956970,654.725098 338.142517,656.999207 
	C342.963165,659.113220 345.427216,663.228943 347.021057,667.903625 
	C350.331421,677.612610 350.025391,687.546021 348.449432,697.510193 
	C347.319611,704.653564 344.645691,711.144836 339.378143,716.257141 
	C345.492828,721.029480 346.673737,720.709167 348.216095,714.216553 
	C350.257019,705.625427 351.527802,696.935669 351.976471,688.079102 
	C353.553284,656.953918 348.022247,626.741333 340.488434,595.936096 
M648.148499,117.389122 
	C649.196472,119.651077 650.404358,121.854630 651.256348,124.188133 
	C652.673523,128.070251 655.250122,129.617691 659.615295,128.892181 
	C659.965515,126.887749 660.515930,124.953224 660.609436,122.996849 
	C661.086609,113.020370 661.843567,103.034386 661.746643,93.059067 
	C661.621277,80.163567 658.214172,68.277206 650.437744,57.526031 
	C644.152893,48.837124 630.708862,51.110451 626.747192,59.570950 
	C625.264709,62.737114 623.653015,65.851463 622.338623,69.086304 
	C614.007080,89.591911 608.123901,111.069542 597.905640,130.821472 
	C596.026367,134.454071 596.389954,137.272827 600.074707,139.126877 
	C604.309509,141.257706 605.146851,137.345215 606.551758,134.971466 
	C613.252869,123.649513 619.562256,112.089920 627.011536,101.224503 
	C630.671326,95.886429 633.811279,95.648750 638.131226,100.527573 
	C642.351807,105.294159 645.774170,110.607132 648.148499,117.389122 
M526.839783,692.621704 
	C531.868164,692.251099 531.258545,687.294067 533.158447,684.505798 
	C538.753723,676.293945 538.998901,667.464722 534.388672,658.656006 
	C531.533142,653.199951 528.351562,647.915405 525.428345,642.493530 
	C524.383606,640.555908 522.694946,639.420837 521.227051,637.966003 
	C517.087769,633.863342 511.826111,633.570862 506.839294,631.949707 
	C498.462524,629.226440 497.486633,629.384583 494.379211,637.564941 
	C493.909088,638.802612 493.484955,640.107788 493.347565,641.414124 
	C491.670197,657.364197 488.074097,672.928833 484.135864,688.437866 
	C482.369812,695.392639 486.528595,699.569824 493.461487,697.827881 
	C504.164459,695.138489 515.102600,694.065857 526.839783,692.621704 
M248.048447,444.760925 
	C245.972031,439.142090 241.187164,435.563477 237.656097,431.047333 
	C223.146088,412.489532 210.479507,392.762817 199.681839,371.830048 
	C198.538055,369.612671 197.565857,366.883148 194.878479,366.408997 
	C190.108810,365.567444 189.413925,362.848999 190.425323,358.801331 
	C190.654602,357.883789 190.583038,356.781219 190.309677,355.865387 
	C188.265839,349.018097 186.354248,342.117981 183.938675,335.400787 
	C182.794174,332.218201 182.472214,328.222992 179.065262,326.396576 
	C175.718506,324.602417 174.993942,321.853241 174.953644,318.511902 
	C174.911133,314.987335 174.135208,311.575134 173.104355,308.225281 
	C172.665741,306.799957 172.225754,304.972198 170.487793,304.909332 
	C166.788559,304.775482 166.324020,301.994568 165.776093,299.459839 
	C165.253220,297.041077 165.235748,294.513458 164.990540,292.034241 
	C164.741898,289.520233 163.573212,287.915894 160.826599,288.175018 
	C158.086960,288.433563 157.860367,290.485474 158.023041,292.596680 
	C158.266968,295.762268 158.727142,298.947723 160.263809,301.746674 
	C161.608246,304.195526 161.990952,306.760498 162.105469,309.432220 
	C162.674164,322.699982 169.558472,333.857239 174.686539,345.478546 
	C178.901901,355.031494 188.278656,362.252228 187.419708,374.161926 
	C187.334930,375.337402 188.328979,376.628418 188.931580,377.810089 
	C197.955399,395.504700 208.038132,412.430420 222.082596,426.796387 
	C224.860092,429.637451 226.512222,432.594788 231.277008,429.705536 
	C234.112442,437.910858 237.804428,444.922638 248.048447,444.760925 
M406.177795,752.674683 
	C410.461121,749.279114 415.078125,746.286865 418.241180,741.618835 
	C420.108704,738.862732 419.688721,737.329224 416.644043,735.884094 
	C401.121033,728.516174 385.629822,728.276611 369.978149,735.483398 
	C366.206604,737.219971 365.950714,739.374023 368.231232,742.436401 
	C371.361633,746.640198 375.571716,749.628662 379.712067,752.687805 
	C392.454376,762.102600 392.463013,762.090942 406.177795,752.674683 
z"/>
<path fill="#000000" opacity="1.000000" stroke="none" 
	d="
M418.772949,790.851257 
	C435.841858,785.401184 447.471130,775.968201 450.188812,765.286133 
	C447.216949,763.757141 444.124268,762.234009 441.104370,760.578125 
	C439.927826,759.933044 438.729004,758.908875 439.407776,757.384155 
	C440.248474,755.495789 441.843109,756.059326 443.253662,756.724121 
	C452.855438,761.249695 463.034698,762.020203 473.485565,761.937927 
	C488.954895,761.816040 504.535919,760.529785 519.828491,763.827209 
	C536.795593,767.485840 551.668762,774.638000 560.772949,790.529053 
	C563.505798,795.299072 564.310852,800.530823 564.796753,805.859375 
	C564.916626,807.173462 564.912109,808.548401 563.114258,809.528992 
	C559.892639,806.332458 558.524719,801.957703 556.879211,797.943054 
	C553.220642,789.017029 546.679077,782.950562 538.940857,777.709778 
	C535.630249,775.467712 533.485107,775.823303 530.992004,778.901245 
	C521.083496,791.134216 514.994019,805.342834 509.371185,819.814941 
	C499.542419,845.112183 490.971039,870.925354 478.632751,895.194214 
	C473.873444,904.555481 468.395599,913.498291 462.733032,922.352173 
	C452.693237,938.050293 438.446991,947.356567 420.699738,952.425842 
	C397.967529,958.918884 375.955170,957.034485 354.164886,948.705017 
	C337.670288,942.399841 327.325378,929.653687 318.361298,915.231262 
	C301.514465,888.126221 291.025269,858.221375 279.841461,828.624329 
	C274.711639,815.048767 269.500763,801.540588 261.986176,789.056641 
	C261.041901,787.487854 260.092712,785.914062 259.027252,784.427551 
	C251.556366,774.004272 250.860870,773.964111 240.714142,782.106506 
	C235.105392,786.607361 231.218170,792.245483 228.464325,798.850586 
	C226.921509,802.550964 225.846832,806.639587 222.137085,810.007019 
	C219.843887,805.055908 221.401428,800.850403 222.590286,796.914368 
	C227.136993,781.861267 238.774628,773.791321 252.307968,767.908569 
	C261.902649,763.737793 272.142029,762.164001 282.519470,761.938843 
	C294.346466,761.682251 306.183746,761.794006 318.015350,761.893921 
	C326.142365,761.962524 333.903534,760.480530 341.351318,757.239502 
	C342.947418,756.544922 344.962494,755.030945 346.156952,757.349548 
	C347.328644,759.624084 344.971710,760.398743 343.496094,761.366577 
	C343.081238,761.638672 342.607391,761.822571 342.155640,762.036560 
	C334.476776,765.672363 333.962372,767.371155 339.723816,774.003235 
	C346.895294,782.258484 356.035767,787.779480 366.515656,790.684692 
	C383.727600,795.456360 401.067657,795.414612 418.772949,790.851257 
M371.244019,945.242065 
	C375.827698,946.034729 380.388733,947.333191 384.998627,947.539124 
	C418.860748,949.052185 444.942444,939.897034 461.285370,909.368469 
	C463.022003,906.124451 462.965607,903.565674 460.922577,900.630371 
	C457.376831,895.535950 453.604095,890.573853 448.303528,887.302429 
	C438.806030,881.440613 429.118500,877.253296 417.312866,881.382935 
	C399.705078,887.542297 381.943176,886.401550 364.462738,880.213806 
	C362.366211,879.471680 360.294373,879.057373 358.110168,879.371948 
	C343.341095,881.498596 332.161072,889.052307 324.333405,901.701416 
	C322.864105,904.075684 322.917023,906.283569 324.251129,908.735046 
	C334.448181,927.472534 348.726410,940.970154 371.244019,945.242065 
M375.330872,875.152832 
	C378.606659,875.715393 381.884064,876.268738 385.157837,876.842773 
	C389.209747,877.553406 390.895538,876.059753 390.803101,871.768494 
	C390.337006,850.133484 390.024506,828.494751 389.764923,806.856079 
	C389.727020,803.697083 388.555176,802.392639 385.373474,802.282166 
	C378.363373,802.038940 371.326538,801.119019 364.742767,798.883789 
	C349.178864,793.599915 334.755554,786.544739 328.160583,769.812683 
	C327.621063,768.443909 327.117462,766.812561 324.981232,767.775757 
	C323.821777,769.290466 324.897217,770.651978 325.368011,771.981384 
	C334.077271,796.574280 336.238434,822.303528 337.982117,848.012268 
	C338.445923,854.850281 340.838440,859.354492 346.202362,862.810486 
	C354.956207,868.450562 364.445404,872.398804 375.330872,875.152832 
M409.786804,875.366394 
	C420.973419,872.418396 431.703339,868.406433 441.189270,861.602783 
	C445.141327,858.768127 447.420776,855.232178 447.739349,849.961914 
	C449.337952,823.515625 451.993408,797.205750 460.400452,771.843628 
	C460.838165,770.523132 461.852814,769.122192 460.734283,767.610046 
	C458.230560,766.960449 457.984741,769.017090 457.472809,770.453247 
	C455.691803,775.449402 452.609009,779.491394 448.805206,783.102417 
	C435.724182,795.520264 419.751129,800.860962 402.161377,802.228516 
	C395.465576,802.749023 395.229034,803.016052 395.430389,809.651428 
	C395.991211,828.129883 396.571198,846.608643 396.959412,865.091187 
	C397.234528,878.190796 395.435883,877.853943 409.786804,875.366394 
z"/>
<path fill="#000000" opacity="1.000000" stroke="none" 
	d="
M394.632568,702.862915 
	C399.289459,704.232849 403.427521,705.728577 407.414368,709.958191 
	C401.412567,711.340271 397.903931,706.779846 393.371857,706.710999 
	C388.623352,706.639038 384.975677,710.309814 380.185974,710.492798 
	C381.386169,705.852234 386.566833,703.130127 394.632568,702.862915 
z"/>
</svg>