<svg version="1.1" id="Layer_1" xmlns="http://www.w3.org/2000/svg" xmlns:xlink="http://www.w3.org/1999/xlink" x="0px" y="0px"
	 width="100%" viewBox="0 0 300 300" enable-background="new 0 0 300 300" xml:space="preserve">
<path fill="#010000" opacity="1.000000" stroke="none" 
	d="
M221.000000,301.000000 
	C147.333344,301.000000 74.166695,301.000000 1.000029,301.000000 
	C1.000020,201.000031 1.000020,101.000061 1.000010,1.000070 
	C100.999947,1.000046 200.999893,1.000046 300.999878,1.000023 
	C300.999939,100.999931 300.999939,200.999863 300.999969,300.999878 
	C274.500000,301.000000 248.000000,301.000000 221.000000,301.000000 
M158.771042,195.200134 
	C159.155182,194.020111 159.918732,192.822433 159.864792,191.662796 
	C159.327164,180.107254 160.749695,178.254028 171.902603,176.324844 
	C171.902603,169.606537 171.902603,162.911209 171.902603,154.423096 
	C163.222305,162.954529 155.477432,170.378387 147.982864,178.046829 
	C145.722137,180.360031 144.156235,183.352295 141.763931,186.693985 
	C140.688187,187.501358 139.227554,188.083191 138.600372,189.153442 
	C135.050003,195.211990 131.031158,200.770340 123.328354,201.338898 
	C114.068977,202.022369 106.060638,198.632111 99.124207,192.652802 
	C98.459305,192.079666 98.446037,190.750580 98.831284,189.713074 
	C107.102409,196.625076 116.017349,201.338150 127.599747,198.517578 
	C125.001938,191.180084 124.500061,184.762497 131.265076,179.794022 
	C131.873703,179.347015 131.969284,177.266846 131.484802,176.405304 
	C123.359207,161.955490 115.103279,147.578979 106.869431,132.421906 
	C105.866249,126.244759 101.481697,122.713760 96.156654,121.276733 
	C91.030670,119.893410 85.750366,121.014740 82.329903,125.518646 
	C86.841965,124.841141 91.548653,123.123772 95.922005,123.746689 
	C100.822510,124.444695 104.144913,128.462372 105.044952,134.070908 
	C103.522987,136.031204 101.777100,137.858246 100.517616,139.974762 
	C94.904732,149.406982 93.565010,159.922119 93.145134,170.618103 
	C92.874596,177.509888 91.447441,184.754578 97.784027,190.606308 
	C94.643745,188.226028 91.594231,185.713104 88.346123,183.490402 
	C78.747650,176.922058 67.731155,175.520233 56.494518,174.993546 
	C49.353447,174.658859 42.216404,174.076553 35.073643,174.006973 
	C31.434494,173.971512 27.329712,173.896194 24.220730,175.430359 
	C9.569122,182.660339 5.988142,197.244980 15.689119,210.363602 
	C27.178291,225.900391 42.433395,237.104523 59.278416,246.191574 
	C68.776375,251.315277 78.919342,254.469604 89.872162,253.751419 
	C91.990448,253.612518 94.028465,252.249390 96.638641,251.245102 
	C96.912170,251.591782 97.711151,252.620331 98.526718,253.635559 
	C103.639343,259.999878 109.720123,265.067596 117.728165,267.299103 
	C131.378433,271.102875 145.197113,272.019836 159.212631,269.506683 
	C175.940186,266.507233 191.921066,261.017059 205.911118,251.555862 
	C222.079208,240.621704 239.372864,240.375107 257.167297,243.748444 
	C265.194031,245.270096 272.792053,249.086349 280.559204,251.930847 
	C284.725250,253.456543 288.402100,253.417175 291.065765,249.242340 
	C293.620056,245.238968 293.093933,240.855011 289.345398,237.625092 
	C287.611176,236.130798 285.565491,234.847778 283.453522,233.965942 
	C266.859528,227.037308 249.587479,224.655014 231.703812,226.473694 
	C216.435913,228.026367 202.353516,233.370117 188.172241,239.198715 
	C188.018127,239.022598 187.864014,238.846481 188.164307,238.136902 
	C191.350143,236.572723 194.535965,235.008545 198.479141,233.072525 
	C196.070496,232.146317 194.292053,231.725204 192.786606,230.839874 
	C184.477966,225.953674 176.235916,220.954224 168.431717,215.244888 
	C174.122971,218.628250 179.668442,222.296448 185.550598,225.306808 
	C190.447372,227.812897 195.739487,229.546478 201.052414,231.701721 
	C203.606415,216.673660 198.779556,201.646469 189.398773,193.750198 
	C178.401855,184.493576 172.913239,184.669159 162.392624,194.360123 
	C161.301071,195.365585 159.468872,195.566986 158.771042,195.200134 
M242.868286,247.631714 
	C253.460419,250.389908 264.003204,253.499237 275.983551,252.743927 
	C266.825714,246.290970 245.867126,242.358490 234.875656,244.618164 
	C235.077728,244.856949 235.230911,245.219986 235.475403,245.298401 
	C237.681595,246.005981 239.903778,246.663712 242.868286,247.631714 
M119.064964,131.246994 
	C119.559494,132.765167 120.054024,134.283340 120.548553,135.801514 
	C122.916466,126.056549 116.928299,111.118782 109.506317,105.976944 
	C104.491226,102.502579 93.164597,101.597977 87.426628,104.971298 
	C91.265259,104.971298 93.997940,105.091156 96.716988,104.949318 
	C105.653374,104.483154 111.662323,108.931465 115.120155,116.645622 
	C117.051834,120.955025 117.766098,125.810127 119.064964,131.246994 
M142.918030,131.842117 
	C138.247650,122.243324 138.204819,122.190552 133.501907,121.368080 
	C144.977142,133.980148 143.014755,148.371796 141.339493,162.839706 
	C145.501358,152.950333 146.163803,142.891083 142.918030,131.842117 
M162.734116,138.200470 
	C163.184250,135.680588 163.634384,133.160706 164.084518,130.640839 
	C163.445511,130.537918 162.806503,130.435013 162.167511,130.332108 
	C160.688797,136.632141 159.210098,142.932175 157.731384,149.232224 
	C158.357498,149.381119 158.983612,149.530014 159.609711,149.678909 
	C160.554047,146.108612 161.498383,142.538315 162.734116,138.200470 
z"/>
<path fill="#E98400" opacity="1.000000" stroke="none" 
	d="
M167.971039,215.993591 
	C176.235916,220.954224 184.477966,225.953674 192.786606,230.839874 
	C194.292053,231.725204 196.070496,232.146317 198.479141,233.072525 
	C194.535965,235.008545 191.350143,236.572723 187.594772,238.488525 
	C183.641663,240.662964 180.258072,242.485764 176.874496,244.308563 
	C177.137878,244.767654 177.401276,245.226746 177.664658,245.685852 
	C181.305466,243.712265 184.946274,241.738693 188.587082,239.765121 
	C202.353516,233.370117 216.435913,228.026367 231.703812,226.473694 
	C249.587479,224.655014 266.859528,227.037308 283.453522,233.965942 
	C285.565491,234.847778 287.611176,236.130798 289.345398,237.625092 
	C293.093933,240.855011 293.620056,245.238968 291.065765,249.242340 
	C288.402100,253.417175 284.725250,253.456543 280.559204,251.930847 
	C272.792053,249.086349 265.194031,245.270096 257.167297,243.748444 
	C239.372864,240.375107 222.079208,240.621704 205.911118,251.555862 
	C191.921066,261.017059 175.940186,266.507233 159.212631,269.506683 
	C145.197113,272.019836 131.378433,271.102875 117.728165,267.299103 
	C109.720123,265.067596 103.639343,259.999878 98.526718,253.635559 
	C97.711151,252.620331 96.912170,251.591782 96.638641,251.245102 
	C94.028465,252.249390 91.990448,253.612518 89.872162,253.751419 
	C78.919342,254.469604 68.776375,251.315277 59.278416,246.191574 
	C42.433395,237.104523 27.178291,225.900391 15.689119,210.363602 
	C5.988142,197.244980 9.569122,182.660339 24.220730,175.430359 
	C27.329712,173.896194 31.434494,173.971512 35.073643,174.006973 
	C42.216404,174.076553 49.353447,174.658859 56.494518,174.993546 
	C67.731155,175.520233 78.747650,176.922058 88.346123,183.490402 
	C91.594231,185.713104 94.643745,188.226028 97.922974,190.253983 
	C98.061920,189.901657 98.130264,189.772430 98.130264,189.772430 
	C98.446037,190.750580 98.459305,192.079666 99.124207,192.652802 
	C106.060638,198.632111 114.068977,202.022369 123.328354,201.338898 
	C131.031158,200.770340 135.050003,195.211990 138.600372,189.153442 
	C139.227554,188.083191 140.688187,187.501358 141.966797,186.367065 
	C142.169647,186.040131 142.113892,185.952896 141.730881,186.148666 
	C141.907913,187.191650 142.467941,188.038864 143.326996,189.010208 
	C143.805313,189.736588 143.984619,190.338852 144.223602,191.328613 
	C144.880356,191.754715 145.477386,191.793320 146.105316,191.846985 
	C146.136200,191.862061 146.164124,191.924881 145.800430,192.189362 
	C146.034439,192.931992 146.632141,193.410126 147.174454,193.895813 
	C147.119049,193.903351 147.149811,193.795837 147.022919,194.263397 
	C147.784348,195.125870 148.672653,195.520782 149.723755,195.900375 
	C150.128281,196.017502 150.184387,196.205170 149.626465,196.668121 
	C151.473007,199.266876 153.747910,201.645554 156.019241,204.005066 
	C156.015671,203.985901 155.977722,203.976852 155.619843,204.225769 
	C157.515671,206.323898 159.769394,208.173096 162.018311,210.003784 
	C162.013519,209.985291 161.975510,209.981232 161.658127,210.245392 
	C163.562347,212.351944 165.783951,214.194366 168.007645,216.016449 
	C168.009750,215.996094 167.971039,215.993607 167.971039,215.993591 
M75.305550,198.924545 
	C60.941223,195.647812 47.302925,197.728134 34.154751,203.459015 
	C43.272552,202.285110 52.340382,200.714218 61.446877,199.414215 
	C62.844643,199.214691 64.845909,199.827759 65.846619,200.804306 
	C73.546234,208.317947 79.742622,216.754868 83.214073,227.210556 
	C85.608643,234.422791 89.168396,241.253159 92.320145,248.203064 
	C92.741493,249.132187 93.825981,249.760559 94.603386,250.528214 
	C85.126823,234.064072 84.402794,213.428635 68.855583,200.380066 
	C80.318840,200.681168 88.703781,206.770798 96.989388,213.079819 
	C94.295410,207.328751 86.742172,202.440720 75.305550,198.924545 
M135.281418,214.987534 
	C138.484146,214.142929 139.777924,211.724335 138.607788,209.003571 
	C137.991089,207.569656 135.401428,206.189224 133.752151,206.245163 
	C132.425232,206.290192 130.369583,208.358658 130.054703,209.832230 
	C129.401749,212.887970 131.222717,214.793533 135.281418,214.987534 
z"/>
<path fill="#FCFCFC" opacity="1.000000" stroke="none" 
	d="
M98.124626,189.864258 
	C91.447441,184.754578 92.874596,177.509888 93.145134,170.618103 
	C93.565010,159.922119 94.904732,149.406982 100.517616,139.974762 
	C101.777100,137.858246 103.522987,136.031204 105.497223,133.772263 
	C106.221687,133.259308 106.530632,133.163498 106.876328,133.186172 
	C115.103279,147.578979 123.359207,161.955490 131.484802,176.405304 
	C131.969284,177.266846 131.873703,179.347015 131.265076,179.794022 
	C124.500061,184.762497 125.001938,191.180084 127.599747,198.517578 
	C116.017349,201.338150 107.102409,196.625076 98.480774,189.742752 
	C98.130264,189.772430 98.061920,189.901657 98.124626,189.864258 
z"/>
<path fill="#E68300" opacity="1.000000" stroke="none" 
	d="
M157.980331,196.141464 
	C159.468872,195.566986 161.301071,195.365585 162.392624,194.360123 
	C172.913239,184.669159 178.401855,184.493576 189.398773,193.750198 
	C198.779556,201.646469 203.606415,216.673660 201.052414,231.701721 
	C195.739487,229.546478 190.447372,227.812897 185.550598,225.306808 
	C179.668442,222.296448 174.122971,218.628250 168.201385,215.619247 
	C167.971039,215.993607 168.009750,215.996094 168.342743,215.739990 
	C167.842056,214.351425 167.008347,213.218979 166.174637,212.086533 
	C166.274261,211.612549 166.373886,211.138580 166.473511,210.664597 
	C174.256012,211.284225 182.038528,211.903854 189.821030,212.523468 
	C180.811249,208.092026 171.462082,208.228470 161.975510,209.981232 
	C161.975510,209.981232 162.013519,209.985291 162.048126,209.656448 
	C160.047745,207.544022 158.012726,205.760437 155.977722,203.976852 
	C155.977722,203.976852 156.015671,203.985901 156.071091,203.587219 
	C156.667648,201.950836 157.332031,200.749298 157.709076,199.463470 
	C157.987335,198.514587 157.890671,197.455765 157.929657,196.406799 
	C157.898270,196.367691 157.980331,196.141464 157.980331,196.141464 
z"/>
<path fill="#FAFAFA" opacity="1.000000" stroke="none" 
	d="
M158.375687,195.670807 
	C157.980331,196.141464 157.898270,196.367691 157.627090,196.617249 
	C156.323715,198.063736 155.291519,199.260635 154.253204,200.464630 
	C152.636017,198.917480 151.345413,197.682770 150.054840,196.448059 
	C150.184387,196.205170 150.128281,196.017502 149.617676,195.536407 
	C148.615814,194.723785 147.882812,194.259811 147.149811,193.795837 
	C147.149811,193.795837 147.119049,193.903351 147.415070,193.595291 
	C147.195419,192.833115 146.679779,192.378998 146.164124,191.924881 
	C146.164124,191.924881 146.136200,191.862061 146.100800,191.523865 
	C145.431564,191.104141 144.797745,191.022629 144.163910,190.941116 
	C143.984619,190.338852 143.805313,189.736588 143.320892,188.662628 
	C142.715134,187.444916 142.414520,186.698898 142.113892,185.952896 
	C142.113892,185.952896 142.169647,186.040131 142.220856,186.036804 
	C144.156235,183.352295 145.722137,180.360031 147.982864,178.046829 
	C155.477432,170.378387 163.222305,162.954529 171.902603,154.423096 
	C171.902603,162.911209 171.902603,169.606537 171.902603,176.324844 
	C160.749695,178.254028 159.327164,180.107254 159.864792,191.662796 
	C159.918732,192.822433 159.155182,194.020111 158.375687,195.670807 
z"/>
<path fill="#B15902" opacity="1.000000" stroke="none" 
	d="
M242.494781,247.483887 
	C239.903778,246.663712 237.681595,246.005981 235.475403,245.298401 
	C235.230911,245.219986 235.077728,244.856949 234.875656,244.618164 
	C245.867126,242.358490 266.825714,246.290970 275.983551,252.743927 
	C264.003204,253.499237 253.460419,250.389908 242.494781,247.483887 
z"/>
<path fill="#2D3240" opacity="1.000000" stroke="none" 
	d="
M119.046959,130.833160 
	C117.766098,125.810127 117.051834,120.955025 115.120155,116.645622 
	C111.662323,108.931465 105.653374,104.483154 96.716988,104.949318 
	C93.997940,105.091156 91.265259,104.971298 87.426628,104.971298 
	C93.164597,101.597977 104.491226,102.502579 109.506317,105.976944 
	C116.928299,111.118782 122.916466,126.056549 120.548553,135.801514 
	C120.054024,134.283340 119.559494,132.765167 119.046959,130.833160 
z"/>
<path fill="#2C313E" opacity="1.000000" stroke="none" 
	d="
M143.061371,132.211853 
	C146.163803,142.891083 145.501358,152.950333 141.339493,162.839706 
	C143.014755,148.371796 144.977142,133.980148 133.501907,121.368080 
	C138.204819,122.190552 138.247650,122.243324 143.061371,132.211853 
z"/>
<path fill="#2E3341" opacity="1.000000" stroke="none" 
	d="
M106.872879,132.804047 
	C106.530632,133.163498 106.221687,133.259308 105.707062,133.520432 
	C104.144913,128.462372 100.822510,124.444695 95.922005,123.746689 
	C91.548653,123.123772 86.841965,124.841141 82.329903,125.518646 
	C85.750366,121.014740 91.030670,119.893410 96.156654,121.276733 
	C101.481697,122.713760 105.866249,126.244759 106.872879,132.804047 
z"/>
<path fill="#2D3240" opacity="1.000000" stroke="none" 
	d="
M162.588409,138.584259 
	C161.498383,142.538315 160.554047,146.108612 159.609711,149.678909 
	C158.983612,149.530014 158.357498,149.381119 157.731384,149.232224 
	C159.210098,142.932175 160.688797,136.632141 162.167511,130.332108 
	C162.806503,130.435013 163.445511,130.537918 164.084518,130.640839 
	C163.634384,133.160706 163.184250,135.680588 162.588409,138.584259 
z"/>
<path fill="#010000" opacity="1.000000" stroke="none" 
	d="
M75.711952,198.997482 
	C86.742172,202.440720 94.295410,207.328751 96.989388,213.079819 
	C88.703781,206.770798 80.318840,200.681168 68.855583,200.380066 
	C84.402794,213.428635 85.126823,234.064072 94.603386,250.528214 
	C93.825981,249.760559 92.741493,249.132187 92.320145,248.203064 
	C89.168396,241.253159 85.608643,234.422791 83.214073,227.210556 
	C79.742622,216.754868 73.546234,208.317947 65.846619,200.804306 
	C64.845909,199.827759 62.844643,199.214691 61.446877,199.414215 
	C52.340382,200.714218 43.272552,202.285110 34.154751,203.459015 
	C47.302925,197.728134 60.941223,195.647812 75.711952,198.997482 
z"/>
<path fill="#090500" opacity="1.000000" stroke="none" 
	d="
M134.882019,214.996338 
	C131.222717,214.793533 129.401749,212.887970 130.054703,209.832230 
	C130.369583,208.358658 132.425232,206.290192 133.752151,206.245163 
	C135.401428,206.189224 137.991089,207.569656 138.607788,209.003571 
	C139.777924,211.724335 138.484146,214.142929 134.882019,214.996338 
z"/>
<path fill="#010000" opacity="1.000000" stroke="none" 
	d="
M161.658127,210.245392 
	C171.462082,208.228470 180.811249,208.092026 189.821030,212.523468 
	C182.038528,211.903854 174.256012,211.284225 166.473511,210.664597 
	C166.373886,211.138580 166.274261,211.612549 166.174637,212.086533 
	C167.008347,213.218979 167.842056,214.351425 168.340637,215.760330 
	C165.783951,214.194366 163.562347,212.351944 161.658127,210.245392 
z"/>
<path fill="#010000" opacity="1.000000" stroke="none" 
	d="
M149.626465,196.668121 
	C151.345413,197.682770 152.636017,198.917480 154.253204,200.464630 
	C155.291519,199.260635 156.323715,198.063736 157.658478,196.656372 
	C157.890671,197.455765 157.987335,198.514587 157.709076,199.463470 
	C157.332031,200.749298 156.667648,201.950836 156.074661,203.606384 
	C153.747910,201.645554 151.473007,199.266876 149.626465,196.668121 
z"/>
<path fill="#010000" opacity="1.000000" stroke="none" 
	d="
M188.379669,239.481918 
	C184.946274,241.738693 181.305466,243.712265 177.664658,245.685852 
	C177.401276,245.226746 177.137878,244.767654 176.874496,244.308563 
	C180.258072,242.485764 183.641663,240.662964 187.367584,238.755264 
	C187.864014,238.846481 188.018127,239.022598 188.379669,239.481918 
z"/>
<path fill="#010000" opacity="1.000000" stroke="none" 
	d="
M155.619843,204.225769 
	C158.012726,205.760437 160.047745,207.544022 162.052917,209.674957 
	C159.769394,208.173096 157.515671,206.323898 155.619843,204.225769 
z"/>
<path fill="#010000" opacity="1.000000" stroke="none" 
	d="
M147.022919,194.263397 
	C147.882812,194.259811 148.615814,194.723785 149.454895,195.551727 
	C148.672653,195.520782 147.784348,195.125870 147.022919,194.263397 
z"/>
<path fill="#010000" opacity="1.000000" stroke="none" 
	d="
M141.730881,186.148666 
	C142.414520,186.698898 142.715134,187.444916 143.021851,188.538513 
	C142.467941,188.038864 141.907913,187.191650 141.730881,186.148666 
z"/>
<path fill="#010000" opacity="1.000000" stroke="none" 
	d="
M144.223602,191.328613 
	C144.797745,191.022629 145.431564,191.104141 146.069916,191.508789 
	C145.477386,191.793320 144.880356,191.754715 144.223602,191.328613 
z"/>
<path fill="#010000" opacity="1.000000" stroke="none" 
	d="
M145.800430,192.189362 
	C146.679779,192.378998 147.195419,192.833115 147.470459,193.587738 
	C146.632141,193.410126 146.034439,192.931992 145.800430,192.189362 
z"/>
</svg>